# xmcd
#
# Track frame offsets: 
#        150
#        14089
#        31059
#        54661
#        69579
#        87816
#        112391
#        131181
#        154504
#        184040
#        202101
#        223679
#
# Disc length: 3220 seconds
#
# Revision: 2
# Processed by: cddbd v1.5.2PL0 Copyright (c) Steve Scherf et al.
# Submitted via: ExactAudioCopy v1.0b3
#
DISCID=b20c920c
DTITLE=Matt Anderson - Coal Mining Blues
DYEAR=2011
DGENRE=Blues
TTITLE0=I Don't Wanna Give In
TTITLE1=Fired Up
TTITLE2=Coal Mining Blues
TTITLE3=Lay It On the Line
TTITLE4=Baby I'll Be
TTITLE5=Make You Stay
TTITLE6=Home Sweet Home
TTITLE7=Heartbreaker
TTITLE8=She Comes Down
TTITLE9=Willie's Diamond Joe
TTITLE10=I Work Hard For the Luxury
TTITLE11=Feel Like Going Home
EXTD=
EXTT0=
EXTT1=
EXTT2=
EXTT3=
EXTT4=
EXTT5=
EXTT6=
EXTT7=
EXTT8=
EXTT9=
EXTT10=
EXTT11=
PLAYORDER=
